<svg width="20" height="20" viewBox="0 0 20 20" fill="none" xmlns="http://www.w3.org/2000/svg">
<path d="M18.3409 10.2005C18.3409 9.63756 18.2853 9.05648 18.1927 8.51172H10.1719V11.7258H14.7658C14.5805 12.7609 13.9693 13.6688 13.0616 14.2499L15.8031 16.3382C17.4147 14.8673 18.3409 12.7246 18.3409 10.2005Z" fill="#4280EF"/>
<path d="M10.1729 18.3359C12.4699 18.3359 14.3963 17.5914 15.8042 16.3203L13.0626 14.2502C12.3031 14.7587 11.3214 15.0492 10.1729 15.0492C7.95004 15.0492 6.07913 13.5783 5.39375 11.6172L2.57812 13.7418C4.02299 16.5564 6.94975 18.3359 10.1729 18.3359Z" fill="#34A353"/>
<path d="M5.39054 11.5984C5.03859 10.5634 5.03859 9.43755 5.39054 8.4025L2.57491 6.25977C1.37086 8.62041 1.37086 11.3987 2.57491 13.7412L5.39054 11.5984Z" fill="#F6B704"/>
<path d="M10.1729 4.97123C11.377 4.95307 12.5625 5.40704 13.4331 6.22419L15.8597 3.82723C14.3222 2.41084 12.2846 1.64817 10.1729 1.66633C6.94976 1.66633 4.02299 3.44589 2.57812 6.2605L5.39375 8.40324C6.07913 6.42393 7.95004 4.97123 10.1729 4.97123Z" fill="#E54335"/>
</svg>
