<svg width="72" height="78" viewBox="0 0 72 78" fill="none" xmlns="http://www.w3.org/2000/svg">
<circle cx="36.5" cy="40.3477" r="35" fill="#FAFAFA"/>
<circle cx="10" cy="2.5" r="2" stroke="#F86259"/>
<circle cx="6.5" cy="65" r="1.5" stroke="#3A84DE"/>
<circle cx="68" cy="51.5" r="1.5" fill="#3A84DE"/>
<circle cx="8" cy="25.5" r="1.5" fill="#26D17C"/>
<rect x="2" y="42" width="1" height="4" rx="0.5" fill="#FFB128"/>
<rect x="0.5" y="44.5" width="1" height="4" rx="0.5" transform="rotate(-90 0.5 44.5)" fill="#FFB128"/>
<rect x="63" y="72" width="1" height="4" rx="0.5" fill="#FFB128"/>
<rect x="61.5" y="74.5" width="1" height="4" rx="0.5" transform="rotate(-90 61.5 74.5)" fill="#FFB128"/>
<rect x="57.375" y="3" width="1.25" height="5" rx="0.5" fill="#21C1BB"/>
<rect x="55.5" y="6.125" width="1.25" height="5" rx="0.5" transform="rotate(-90 55.5 6.125)" fill="#21C1BB"/>
<path d="M39.4224 19.0078L24.9224 9.00781L36.4653 29.5059L39.4224 19.0078Z" fill="url(#paint0_linear_164_358)"/>
<path d="M25.8861 26.2453L24.9243 9L36.4731 29.5088L25.8861 26.2453Z" fill="url(#paint1_linear_164_358)"/>
<path d="M28.7773 41.2969L36.2207 67.2461L36.4883 29.4609L28.7773 41.2969Z" fill="url(#paint2_linear_164_358)"/>
<path d="M44.1596 43.2229L36.2158 67.252L36.4854 29.4854L44.1596 43.2229Z" fill="url(#paint3_linear_164_358)"/>
<path d="M44.1524 43.2336L61.4421 42.7871L36.4753 29.4668L44.1524 43.2336Z" fill="url(#paint4_linear_164_358)"/>
<path d="M50.5107 29.2608L61.4368 42.7871L36.4739 29.4741L50.5107 29.2608Z" fill="url(#paint5_linear_164_358)"/>
<path d="M25.8911 26.2368L12.5278 36.6875L36.4575 29.5024L25.8911 26.2368Z" fill="url(#paint6_linear_164_358)"/>
<path d="M28.7751 41.3087L12.5217 36.6855L36.4651 29.5L28.7751 41.3087Z" fill="url(#paint7_linear_164_358)"/>
<path d="M50.5177 29.2642L55.4324 12.7012L36.4773 29.4766L50.5177 29.2642Z" fill="url(#paint8_linear_164_358)"/>
<path d="M39.4219 19.0005L55.4395 12.7012L36.4648 29.5049L39.4219 19.0005Z" fill="url(#paint9_linear_164_358)"/>
<rect x="28.6074" y="67.2422" width="15.166" height="5.96143" rx="1" fill="#FFC800"/>
<rect x="25.4805" y="71.3477" width="21.4219" height="5.96143" rx="1" fill="#FF6F2C"/>
<defs>
<linearGradient id="paint0_linear_164_358" x1="38.2777" y1="10.5861" x2="30.227" y2="29.5078" gradientUnits="userSpaceOnUse">
<stop stop-color="#FEA608"/>
<stop offset="1" stop-color="#FFD110"/>
</linearGradient>
<linearGradient id="paint1_linear_164_358" x1="23.1314" y1="5.14956" x2="28.4657" y2="24.5817" gradientUnits="userSpaceOnUse">
<stop stop-color="#FEA608"/>
<stop offset="1" stop-color="#FFD110"/>
</linearGradient>
<linearGradient id="paint2_linear_164_358" x1="32.9219" y1="64.9292" x2="32.7349" y2="45.0177" gradientUnits="userSpaceOnUse">
<stop stop-color="#FEA608"/>
<stop offset="1" stop-color="#FFD110"/>
</linearGradient>
<linearGradient id="paint3_linear_164_358" x1="34.2237" y1="16.9713" x2="43.4842" y2="60.199" gradientUnits="userSpaceOnUse">
<stop stop-color="#FEA608"/>
<stop offset="1" stop-color="#FFD110"/>
</linearGradient>
<linearGradient id="paint4_linear_164_358" x1="34.8386" y1="26.4413" x2="49.5961" y2="44.2372" gradientUnits="userSpaceOnUse">
<stop stop-color="#FEA608"/>
<stop offset="1" stop-color="#FFD110"/>
</linearGradient>
<linearGradient id="paint5_linear_164_358" x1="58.9103" y1="36.0815" x2="37.9545" y2="26.8867" gradientUnits="userSpaceOnUse">
<stop stop-color="#FEA608"/>
<stop offset="1" stop-color="#FFD110"/>
</linearGradient>
<linearGradient id="paint6_linear_164_358" x1="16.9167" y1="34.6229" x2="33.0804" y2="22.3001" gradientUnits="userSpaceOnUse">
<stop stop-color="#FEA608"/>
<stop offset="1" stop-color="#FFD110"/>
</linearGradient>
<linearGradient id="paint7_linear_164_358" x1="48.6131" y1="35.2745" x2="16.9716" y2="31.5336" gradientUnits="userSpaceOnUse">
<stop stop-color="#FEA608"/>
<stop offset="1" stop-color="#FFD110"/>
</linearGradient>
<linearGradient id="paint8_linear_164_358" x1="56.4066" y1="16.6128" x2="43.5025" y2="31.7781" gradientUnits="userSpaceOnUse">
<stop stop-color="#FEA608"/>
<stop offset="1" stop-color="#FFD110"/>
</linearGradient>
<linearGradient id="paint9_linear_164_358" x1="40.1461" y1="29.5509" x2="43.6752" y2="5.39882" gradientUnits="userSpaceOnUse">
<stop stop-color="#FEA608"/>
<stop offset="1" stop-color="#FFD110"/>
</linearGradient>
</defs>
</svg>
